<svg width="87" height="19" viewBox="0 0 87 19" fill="none" xmlns="http://www.w3.org/2000/svg">
<g clip-path="url(#clip0_7483_151806)">
<path fill-rule="evenodd" clip-rule="evenodd" d="M15.4023 1.82811C15.4023 2.8281 16.2187 3.65622 17.2773 3.65622C18.3359 3.65622 19.1523 2.8281 19.1523 1.82811C19.1523 0.828117 18.3359 0 17.2773 0C16.2187 0 15.4023 0.828117 15.4023 1.82811ZM15.5234 5.31636V18.2069H19.0351V5.31636H15.5234ZM0 0.855461V18.2069H7.68359C11.3867 18.2069 13.6836 16.3084 13.6836 13.2655V13.2421C13.6836 10.9686 11.9414 9.26163 9.52343 9.08194V9.01163C11.4336 8.75773 12.8789 7.13665 12.8789 5.23432V5.21089C12.8789 2.54294 10.8242 0.859366 7.55077 0.859366H0V0.855461ZM3.63281 3.55075H6.61328C8.30859 3.55075 9.30859 4.34371 9.30859 5.72651V5.74994C9.30859 7.25384 8.21484 8.10539 6.17187 8.10539H3.63281V3.54684V3.55075ZM3.63281 10.5741H6.60156C8.82812 10.5741 9.98046 11.4296 9.98046 13.0155V13.0389C9.98046 14.6522 8.83984 15.5038 6.75781 15.5038H3.63281V10.5741ZM26.5156 18.4764C23.6523 18.4764 22.3086 17.3709 22.3086 14.6053V7.96867H20.5156V5.32417H22.3086V2.17185H25.8554V5.32417H28.2109V7.96867H25.8554V14.2225C25.8554 15.4256 26.3984 15.8358 27.4531 15.8358C27.707 15.8358 27.9062 15.8123 28.0898 15.7889C28.1328 15.785 28.1719 15.7772 28.2109 15.7733V18.3475C27.8125 18.4061 27.25 18.4803 26.5156 18.4803V18.4764Z" fill="#00CCE8"/>
<path fill-rule="evenodd" clip-rule="evenodd" d="M30.5547 0.863281V18.2147H37.1797C42.3867 18.2147 45.4531 14.9803 45.4531 9.47257V9.44913C45.4531 3.95309 42.375 0.863281 37.1797 0.863281H30.5547ZM36.7461 15.2108H34.1836V3.85934H36.7461C39.9336 3.85934 41.75 5.8437 41.75 9.46476V9.4882C41.75 13.2421 39.9961 15.2108 36.7461 15.2108ZM53.3672 18.4803C49.4219 18.4803 47.0313 15.9178 47.0313 11.7929V11.7811C47.0313 7.67962 49.4492 5.05855 53.2227 5.05855C56.9961 5.05855 59.3672 7.62103 59.3672 11.5155V12.5975H50.4922C50.5273 14.6522 51.6484 15.8553 53.4375 15.8553C54.8789 15.8553 55.7578 15.0624 56.0117 14.3397L56.0352 14.2694H59.2578L59.2227 14.4022C58.8242 16.3006 57.0469 18.4803 53.3672 18.4803ZM53.2813 7.67962C51.8398 7.67962 50.7539 8.64055 50.5273 10.3866H56C55.7852 8.60539 54.7383 7.67962 53.2813 7.67962ZM61.2656 0.859375V18.2108H64.7774V0.863281H61.2656V0.859375ZM72.2695 18.4764C69.4063 18.4764 68.0625 17.3709 68.0625 14.6053V7.96868H66.2695V5.32417H68.0625V2.17186H71.6094V5.32417H73.9649V7.96868H71.6094V14.2225C71.6094 15.4256 72.1524 15.8358 73.207 15.8358C73.461 15.8358 73.6602 15.8123 73.8438 15.7889C73.8867 15.785 73.9258 15.7772 73.9649 15.7733V18.3475C73.5664 18.4061 73.0039 18.4803 72.2695 18.4803V18.4764ZM75.2891 14.5194C75.2891 16.7928 77.0313 18.4139 79.6172 18.4139C81.3125 18.4139 82.6836 17.6092 83.418 16.285H83.4883V18.2108H87V9.37101C87 6.77338 84.8477 5.05465 81.5156 5.05465C78.1836 5.05465 76.0664 6.76166 75.875 9.14445L75.8633 9.28898H79.0742L79.0977 9.1796C79.2656 8.35149 80.0586 7.73821 81.3711 7.73821C82.6836 7.73821 83.4883 8.44914 83.4883 9.58976V10.3827L80.3008 10.5741C77.1016 10.7772 75.2852 12.1483 75.2852 14.496V14.5194H75.2891ZM80.7617 15.8553C79.5469 15.8553 78.7656 15.2889 78.7656 14.3397V14.3163C78.7656 13.4022 79.4766 12.8241 80.832 12.7421L83.4883 12.5741V13.4999C83.4883 14.8475 82.332 15.8553 80.7578 15.8553H80.7617Z" fill="white"/>
</g>
<defs>
<clipPath id="clip0_7483_151806">
<rect width="87" height="19" fill="white"/>
</clipPath>
</defs>
</svg>
